<?xml version="1.0" encoding="UTF-8"?>
<svg id="Layer_1" data-name="Layer 1" xmlns="http://www.w3.org/2000/svg" viewBox="0 0 33 33">
  <defs>
    <style>
      .cls-1 {
        fill: #fff;
      }

      .cls-1, .cls-2 {
        stroke-width: 0px;
      }

      .cls-2 {
        fill: #1e1e1e;
      }
    </style>
  </defs>
  <path class="cls-2" d="m33,16.5c0,9.11-7.39,16.5-16.5,16.5h-.1c-9.07-.05-16.4-7.42-16.4-16.5S7.39,0,16.5,0c8.49,0,15.49,6.42,16.4,14.68.07.6.1,1.21.1,1.82Z"/>
  <path class="cls-1" d="m22.06,7.76h2.96l-6.48,7.4,7.62,10.07h-5.96l-4.67-6.11-5.35,6.11h-2.97l6.93-7.92L6.84,7.76h6.12l4.22,5.58,4.88-5.58Zm-1.04,15.7h1.64l-10.6-14.02h-1.76l10.72,14.02Z"/>
</svg>