<?xml version="1.0" encoding="UTF-8"?>
<svg id="Layer_1" data-name="Layer 1" xmlns="http://www.w3.org/2000/svg" viewBox="0 0 33 33">
  <defs>
    <style>
      .cls-1 {
        fill: #6fc32e;
      }

      .cls-1, .cls-2, .cls-3 {
        stroke-width: 0px;
      }

      .cls-2 {
        fill: #fff;
      }

      .cls-3 {
        fill: #6dc02d;
      }
    </style>
  </defs>
  <circle class="cls-3" cx="16.5" cy="16.5" r="16.5"/>
  <g>
    <path class="cls-2" d="m28.8,15.9c.04-.3.09-.56.09-.74v-.95c-.3-5.24-5.76-9.44-12.38-9.44S4.12,9.19,4.12,14.64c0,5.02,4.68,9.14,10.74,9.79.39.04.65.39.61.74l-.26,2.29c-.04.52.48.91.95.69,5.11-2.47,8.18-5.02,10.05-7.23.35-.39,1.43-1.91,1.65-2.34.48-.82.78-1.73.95-2.68Z"/>
    <g>
      <path class="cls-1" d="m9.7,16.63v-4.16c0-.35-.3-.65-.65-.65h0c-.35,0-.65.3-.65.65v4.76c0,.35.3.65.65.65h2.55c.35,0,.65-.3.65-.65h0c0-.35-.3-.65-.65-.65l-1.91.04h0Z"/>
      <path class="cls-1" d="m13.6,17.89h-.26c-.26,0-.48-.22-.48-.48v-5.07c0-.26.22-.48.48-.48h.26c.26,0,.48.22.48.48v5.07c0,.26-.22.48-.48.48Z"/>
      <path class="cls-1" d="m18.71,12.48v2.94s-2.51-3.29-2.55-3.33c-.13-.13-.3-.22-.48-.22-.35,0-.61.3-.61.65v4.76c0,.35.3.65.65.65h0c.35,0,.65-.3.65-.65v-2.9s2.55,3.33,2.6,3.38c.13.09.26.17.43.17.35,0,.65-.3.65-.65v-4.76c0-.35-.3-.65-.65-.65h0c-.39-.04-.69.26-.69.61Z"/>
      <path class="cls-1" d="m24.73,12.48h0c0-.35-.3-.65-.65-.65h-2.55c-.35,0-.65.3-.65.65v4.76c0,.35.3.65.65.65h2.55c.35,0,.65-.3.65-.65h0c0-.35-.3-.65-.65-.65h-1.91v-1.13h1.91c.35,0,.65-.3.65-.65h0c0-.35-.3-.65-.65-.65h-1.91v-1.13h1.91c.39.09.65-.22.65-.56Z"/>
    </g>
  </g>
</svg>